# xmcd CD database file
#
# Track frame offsets:
#	150
#	39731
#	55738
#	73774
#	86814
#	108854
#	118593
#	151607
#	158169
#	174431
#	186070
#
# Disc length: 2874 seconds
#
# Revision: 0
# Processed by: cddbd v1.5.1PL2 Copyright (c) Steve Scherf et al.
# Submitted via: CDex 1.51
#
DISCID=860b380b
DTITLE=足立兄弟 - Xianshi
DYEAR=2005
DGENRE=JPop
TTITLE0=Sister Crime
TTITLE1=Slow Poison
TTITLE2=Magpie A Gigue
TTITLE3=Night Dance
TTITLE4=Chance Meeting
TTITLE5=Ambush
TTITLE6=In The Howling Wood
TTITLE7=Sailor's Hornpipe/Steppin' Out
TTITLE8=Her Holly Stumbling Block
TTITLE9=Wond'ring Aloud
TTITLE10=Hard Line
EXTD=YEAR: 2005
EXTT0=
EXTT1=
EXTT2=
EXTT3=
EXTT4=
EXTT5=
EXTT6=
EXTT7=
EXTT8=
EXTT9=
EXTT10=
PLAYORDER=
